<?xml version="1.0" encoding="UTF-8"?>
<svg id="_Слой_2" data-name="Слой 2" xmlns="http://www.w3.org/2000/svg" viewBox="0 0 1992.97 657.8">
  <defs>
    <style>
      .cls-1 {
      fill: #323232;
      }
      .cls-2 {
      fill: #7dba28;
      }
    </style>
  </defs>
  <g id="_Слой_1-2" data-name="Слой 1">
    <g>
      <path id="SVGID" class="cls-2"
        d="m679.27,222.9l-164.9-162C474.47,21.7,422.28.5,369.97,0c-52.4.5-104.5,21.7-144.5,60.9L60.67,222.9c-80.9,79.5-80.9,208.4,0,287.9l20.8,20.4c37.1,36.4,230,119.6,247.3,126.6v-314.6c0-9.6-6.7-18.3-15.8-21.9l-102.8-40.2c-8.6,7.2-19.6,11.5-31.7,11.5-27.3,0-49.3-22.1-49.3-49.3s22.1-49.3,49.3-49.3c25.2,0,46,19,48.9,43.3l100.1,39.1c13.7,5.3,28,8.1,42.4,8.3,14.4-.2,28.8-2.9,42.4-8.3l100.2-39.1c3-24.3,23.7-43.3,48.9-43.3,27.3,0,49.3,22.1,49.3,49.3s-22.1,49.3-49.3,49.3c-12.1,0-23.2-4.3-31.7-11.5l-102.9,40.2c-9.2,3.6-15.8,12.2-15.8,21.9v314.6c17.3-7,210.3-90.2,247.3-126.6l20.8-20.5c81.1-79.5,81.1-208.3.2-287.8m-309.3-7.5c-32.9,0-59.6-26.7-59.6-59.6s26.7-59.6,59.6-59.6,59.5,26.7,59.5,59.6-26.7,59.6-59.5,59.6" />
      <rect class="cls-1" x="946.97" y="87.9" width="34.4" height="214.4" />
      <polygon class="cls-1"
        points="1070.67 302.3 1104.97 302.3 1104.97 118.1 1168.38 118.5 1168.38 87.9 1007.77 87.9 1007.77 118.5 1070.67 118.1 1070.67 302.3" />
      <path class="cls-1"
        d="m1304.77,225.2h37.5c11.4,0,21.8-1.8,31-5.4s17-8.5,23.5-14.8c6.5-6.2,11.5-13.6,15-22,3.6-8.3,5.3-17.3,5.3-27.1s-1.6-18.4-5-26.8c-3.3-8.3-8.1-15.5-14.3-21.7-6.2-6.1-13.8-11-22.8-14.4-9-3.6-19.3-5.3-30.7-5.3h-73.8v214.4h34.4l-.1-76.9h0Zm-.1-106.7h39.4c12.6,0,22.1,3.3,28.7,10.1s9.9,15.9,9.9,27.4c0,12.1-3.6,21.5-10.8,28.4-7.1,6.9-17,10.3-29.7,10.3h-37.5v-76.2Z" />
      <path class="cls-1"
        d="m1527.07,87.9h-35l-78.2,214.4h35.7l18.4-52.8h83l18.7,52.8h35.7l-78.3-214.4Zm-48.5,131.9l15.9-45.5,14.7-50.8h.6l14.7,50.8,15.8,45.5h-61.7Z" />
      <path class="cls-1"
        d="m1772.47,192.2c8.5-11,12.7-23.8,12.7-38.7,0-9.2-1.6-17.7-5-25.6-3.3-7.9-8.1-14.9-14.3-20.8-6.2-5.9-14-10.7-23.3-14s-19.7-5.1-31.3-5.1h-78.5v214.4h34.4v-82h37.3l47.7,82h36.8l-50.5-87.2c14.2-4.5,25.5-12.2,34-23Zm-105.3-2.5v-71.2h44.3c13.1,0,22.9,3.2,29.5,9.6s9.9,14.9,9.9,25.4-3.4,19.8-10.7,26.4c-7.1,6.6-17,9.8-29.7,9.8h-43.3Z" />
      <rect class="cls-1" x="1822.07" y="87.9" width="34.4" height="214.4" />
      <polygon class="cls-1"
        points="1992.97 302.3 1900.07 188.4 1990.18 88 1950.68 88 1868.57 179.2 1868.57 198.9 1952.18 302.3 1992.97 302.3" />
      <g>
        <polygon class="cls-2" points="1764.97 481.1 1810.28 481.1 1787.47 418.8 1764.97 481.1" />
        <path class="cls-2"
          d="m1253.68,468.4h-37.8v41h37.8v.1c5.7,0,10.4-2,14.3-6s5.8-8.9,5.8-14.6-2-10.5-5.9-14.5-8.6-6-14.2-6Z" />
        <path class="cls-2"
          d="m1263.07,447.6c3.6-3.7,5.4-8.3,5.4-13.7s-1.8-9.8-5.5-13.6c-3.7-3.9-8.1-5.8-13.3-5.8h-33.8v38.7h33.8c5.3,0,9.8-1.9,13.4-5.6Z" />
        <path class="cls-2"
          d="m1959.57,353.8h-980.8c-18.5,0-33.4,15-33.4,33.4v149.5c0,18.5,15,33.4,33.4,33.4h980.8c18.5,0,33.4-14.9,33.4-33.4v-149.5c0-18.5-15-33.4-33.4-33.4Zm-881,129c0,13.6-4.4,24.4-13.2,32.5-8.8,8.2-20.2,12.3-34.1,12.3s-25.4-4.1-34.2-12.2c-8.9-8.1-13.3-19-13.3-32.6v-84h16.8v83.3c0,8.9,2.6,16,7.9,21.2s12.9,7.9,22.8,7.9,17.5-2.6,22.8-7.9c5.3-5.2,7.9-12.3,7.9-21.2v-83.3h16.6v84Zm101.7,42.4h-82.6v-14.6l61.1-95.9h-59.4v-15.9h79.5v14.5l-61.3,96h62.7v15.9Zm99.3-10.3c-7.1,6.9-15.8,10.3-26,10.3h-54.5v-126.5h50.6c9.9,0,18.2,3.3,25.1,9.9s10.3,14.8,10.3,24.6c0,11.3-4.6,20.1-13.7,26.4,5.8,2.8,10.4,6.7,13.8,11.9,3.4,5.2,5.1,11.1,5.1,17.9,0,10.1-3.6,18.6-10.7,25.5Zm106.1,10.3h-75.5v-126.5h74.6v15.9h-57.8v38.8h53.3v15.7h-53.3v40.2h58.7v15.9Zm91.6,0l-54.6-60.7v60.7h-16.8v-126.5h16.8v57.1l52.8-57.1h20.6l-55.8,61.4,57.6,65.1h-20.6Zm52.4.1h-16.8v-126.5h16.8v126.5Zm97.9-7.9c-8.4,6.9-18.9,10.2-31.9,10.2-11.8,0-21.9-2.8-30.3-8.3s-14.2-13.1-17.6-22.8l14.5-8.3c4.9,15.3,16.2,22.9,33.8,22.9,8.7,0,15.3-1.8,19.9-5.3,4.6-3.6,6.9-8.3,6.9-14.2s-2.3-10.5-6.9-13.6c-4.6-3-12.2-6.2-22.9-9.6-5.3-1.7-9.3-3-12.1-4.1-2.8-1-6.2-2.6-10.4-4.7-4.2-2.1-7.3-4.3-9.3-6.5s-3.9-5.1-5.5-8.8c-1.6-3.6-2.4-7.7-2.4-12.3,0-11,3.9-19.7,11.6-26.1s17.1-9.7,28.2-9.7c10,0,18.7,2.5,26.1,7.6s13,11.7,16.7,20.1l-14.1,8.1c-5.4-13-15-19.5-28.7-19.5-6.9,0-12.4,1.7-16.6,5.1s-6.3,7.9-6.3,13.7c0,5.5,2,9.8,6,12.6s10.8,5.9,20.6,9c3.5,1.1,6,1.9,7.4,2.3,1.4.5,3.7,1.3,6.8,2.5,3.1,1.2,5.3,2.2,6.8,2.9,1.4.7,3.4,1.7,5.9,3.1,2.5,1.3,4.3,2.6,5.5,3.8,1.2,1.2,2.6,2.7,4.2,4.4,1.6,1.7,2.8,3.5,3.5,5.3s1.4,3.9,1.9,6.2c.5,2.3.8,4.9.8,7.5,0,11.1-4,19.9-12.1,26.5Zm70.7,7.9h-16.6v-110.6h-37.2v-15.9h91.2v15.9h-37.4v110.6Zm128.1-.1l-10.3-28.4h-56.9l-10.3,28.4h-17.9l47.2-126.5h19l47.2,126.5h-18Zm128.3.1h-13.6l-65-94.5v94.5h-16.8v-126.5h13.6l65,94.3v-94.3h16.8v126.5Z" />
      </g>
    </g>
  </g>
</svg>